<?xml version="1.0" encoding="iso-8859-1"?>
<!-- Uploaded to: SVG Repo, www.svgrepo.com, Generator: SVG Repo Mixer Tools -->
<svg fill="#000000" height="800px" width="800px" version="1.1" id="Layer_1" xmlns="http://www.w3.org/2000/svg" xmlns:xlink="http://www.w3.org/1999/xlink" 
	 viewBox="0 0 472.61 472.61" xml:space="preserve">
<g>
	<g>
		<path d="M388.685,131.399v79.298c0,45.078-18.644,88.106-51.144,118.048c-31.231,28.769-71.673,42.808-113.827,39.231
			c-78.384-6.432-139.788-73.144-139.788-151.866v-84.711H64.233v84.711c0,88.895,69.345,164.222,157.865,171.5
			c1.46,0.12,2.907,0.096,4.365,0.178v65.129h-89.644v19.692H335.8v-19.692h-89.644v-65.173
			c38.858-2.221,75.401-17.504,104.731-44.519c36.539-33.654,57.491-81.961,57.491-132.529v-79.298H388.685z"/>
	</g>
</g>
<g>
	<g>
		<path d="M236.31,0c-56.257,0-101.862,45.603-101.862,101.86v5.395h55.458v19.692h-55.458v27.259h55.458v19.692h-55.458v42.211
			c0,56.26,45.605,101.863,101.862,101.863c56.256,0,101.861-45.603,101.861-101.863V101.86C338.171,45.603,292.566,0,236.31,0z"/>
	</g>
</g>
</svg>